<?xml version="1.0" encoding="UTF-8" standalone="no"?>
<svg
   t="1720493796560"
   class="icon"
   viewBox="0 0 1024 1024"
   version="1.1"
   p-id="12323"
   width="200"
   height="200"
   id="svg4"
   sodipodi:docname="火车.svg"
   inkscape:version="1.1 (c68e22c387, 2021-05-23)"
   inkscape:export-filename="C:\Users\76572\Downloads\火车.png"
   inkscape:export-xdpi="96"
   inkscape:export-ydpi="96"
   xmlns:inkscape="http://www.inkscape.org/namespaces/inkscape"
   xmlns:sodipodi="http://sodipodi.sourceforge.net/DTD/sodipodi-0.dtd"
   xmlns:xlink="http://www.w3.org/1999/xlink"
   xmlns="http://www.w3.org/2000/svg"
   xmlns:svg="http://www.w3.org/2000/svg">
  <defs
     id="defs8">
    <linearGradient
       inkscape:collect="always"
       id="linearGradient23904">
      <stop
         style="stop-color:#aa00d4;stop-opacity:1;"
         offset="0"
         id="stop23900" />
      <stop
         style="stop-color:#00ccff;stop-opacity:1"
         offset="1"
         id="stop23902" />
    </linearGradient>
    <linearGradient
       inkscape:collect="always"
       xlink:href="#linearGradient23904"
       id="linearGradient23906"
       x1="269.68106"
       y1="535.77014"
       x2="688.32654"
       y2="581.78601"
       gradientUnits="userSpaceOnUse"
       gradientTransform="matrix(1.1333333,0,0,1.1333333,-40.106666,-66.559988)" />
  </defs>
  <sodipodi:namedview
     id="namedview6"
     pagecolor="#ffffff"
     bordercolor="#666666"
     borderopacity="1.0"
     inkscape:pageshadow="2"
     inkscape:pageopacity="0.0"
     inkscape:pagecheckerboard="0"
     showgrid="false"
     inkscape:zoom="2.0775"
     inkscape:cx="165.58363"
     inkscape:cy="73.164862"
     inkscape:window-width="1920"
     inkscape:window-height="1017"
     inkscape:window-x="-8"
     inkscape:window-y="1432"
     inkscape:window-maximized="1"
     inkscape:current-layer="layer1"
     fit-margin-top="0"
     fit-margin-left="0"
     fit-margin-right="0"
     fit-margin-bottom="0"
     lock-margins="true" />
  <g
     inkscape:groupmode="layer"
     id="layer1"
     inkscape:label="背景"
     style="display:inline"
     transform="translate(-28.160001,-92.160012)">
    <rect
       style="fill:#ffffff;fill-opacity:1;stroke:#000000;stroke-width:1.04788;stroke-linejoin:round;paint-order:stroke markers fill"
       id="rect5248"
       width="1022.9521"
       height="1022.9521"
       x="28.683941"
       y="92.683952"
       ry="177.90471" />
    <text
       xml:space="preserve"
       style="font-style:normal;font-weight:normal;font-size:163.84px;line-height:1.25;font-family:sans-serif;letter-spacing:25.9933px;fill:#5584ff;fill-opacity:1;stroke:none;stroke-width:5.19865"
       x="548.07971"
       y="989.2511"
       id="text8872"
       transform="scale(0.99057282,1.0095169)"><tspan
         sodipodi:role="line"
         id="tspan8870"
         style="font-style:normal;font-variant:normal;font-weight:bold;font-stretch:normal;font-size:163.84px;font-family:'Microsoft YaHei UI';-inkscape-font-specification:'Microsoft YaHei UI Bold';text-align:center;text-anchor:middle;fill:#5584ff;fill-opacity:1;stroke-width:5.19865"
         x="561.07635"
         y="989.2511"
         dx="0">机车调度</tspan></text>
  </g>
  <g
     inkscape:groupmode="layer"
     id="layer2"
     inkscape:label="图标"
     style="display:inline"
     transform="translate(-28.160001,-92.160012)">
    <path
       d="m 104.96,619.44243 c 27.53305,-123.45469 103.9151,-213.60327 198.0604,-291.31756 30.19756,-24.86857 63.50369,-41.29959 105.24735,-39.96735 33.30612,1.33225 66.61225,-3.99674 99.91838,-6.21714 40.8555,-2.66448 75.04978,10.21387 100.36244,42.18775 85.26368,108.35592 193.17552,184.73796 324.17959,228.70205 11.99019,3.99673 16.87514,11.10204 18.65145,23.09225 5.77301,36.41469 11.9902,72.38531 18.65136,108.8 3.10864,18.20734 -0.88806,23.09225 -19.98359,23.53631 -6.21719,0 -12.43437,0.44409 -18.65146,0 -15.09879,-1.77631 -26.6449,1.77634 -32.86205,19.98369 H 975.36 v 13.76653 c -109.24409,2.22041 -218.04409,11.54612 -326.4,28.86529 -41.2996,6.66124 -82.59918,17.31919 -123.89878,18.20736 -121.23428,2.66448 -242.46857,0.88816 -363.70286,0.88816 -5.77306,0 -11.9902,-0.44408 -17.76327,-0.88816 v -60.83918 h 40.41144 C 175.56898,718.91671 170.68408,707.81468 163.13469,705.59425 128.9404,695.82447 112.0653,672.73222 104.96,639.87018 Z M 508.63021,329.90121 c -56.39837,0 -109.24408,0 -161.64572,0.44407 -4.44083,0 -9.7698,2.66449 -13.32245,5.77306 -40.41142,35.97062 -77.2702,74.60571 -103.9151,122.12244 -4.44081,7.5494 -7.54938,15.98696 -11.99021,25.75674 62.17143,0 121.23429,0 180.74123,-0.44408 3.99673,0 9.3257,-4.88489 11.9902,-8.88163 18.20735,-27.97713 35.52653,-56.39837 54.17797,-83.93143 13.32244,-19.5396 27.53305,-38.19101 43.96408,-60.83917 z m 143.43836,113.24081 c -3.10857,-4.44081 -6.21714,-10.65797 -10.65795,-15.09878 -21.31593,-22.20408 -43.07593,-43.52 -63.94775,-65.72408 -9.76981,-10.65795 -15.98696,-9.76979 -22.64818,3.10858 -17.76326,33.30611 -36.41469,66.61224 -55.06612,99.47428 -6.66122,11.54611 -3.99673,19.98367 5.32899,26.20081 31.08571,20.42776 62.6155,40.41142 94.58938,59.50694 3.55266,2.22041 15.09877,-0.88816 16.43102,-3.99674 12.87838,-33.7502 23.98041,-67.5004 35.97061,-103.47101 z m 29.75347,16.43101 c -10.21388,36.41471 -19.5396,70.16491 -28.42122,103.47102 -0.88817,3.10858 2.66449,10.21389 6.21714,11.54613 22.20408,9.32572 44.85225,18.20734 67.94448,25.75673 3.10858,0.88817 11.54613,-4.44082 12.43429,-7.54939 4.44083,-25.31265 8.43756,-51.06939 11.10205,-76.82612 0.44409,-5.32897 -1.33225,-13.76653 -5.32899,-16.43102 -19.98366,-13.32244 -40.8555,-25.31264 -63.94775,-39.96735 z m 93.25714,59.95102 c -2.2204,19.5396 -3.55265,36.41469 -5.77305,53.2898 -6.66123,46.62858 -6.66123,46.62858 39.52325,55.95428 1.33225,0 2.22041,0.44409 3.10858,0.88817 8.43755,1.77633 12.87838,-1.33225 13.32244,-10.21387 0.88817,-20.87184 2.6645,-41.74369 2.6645,-62.61552 0,-4.88489 -2.6645,-11.9902 -6.21715,-14.21061 -13.76653,-8.43756 -28.86531,-14.65469 -46.62857,-23.09225 z m -292.6498,206.49797 c -8.43754,-15.09878 -19.53959,-17.76328 -34.63836,-17.76328 -62.17142,0.88817 -124.34286,0.88817 -186.51429,0 -14.65469,0 -24.86857,2.6645 -30.64163,17.76328 z M 205.76653,516.85956 c -19.53959,0 -35.52653,15.98694 -35.97062,35.52653 -0.44408,19.98368 16.87511,36.85878 36.85878,36.41469 19.5396,0 35.52653,-16.43101 35.52653,-35.9706 0.44409,-19.98368 -15.54285,-35.97062 -36.41469,-35.97062 z m 211.38285,0 c -20.42775,-0.44407 -36.85876,15.98694 -36.85876,35.97062 0,19.09551 16.43101,35.52653 35.52651,35.9706 19.98369,0.44409 36.41471,-15.98693 36.41471,-36.41469 0.44407,-19.98366 -15.09878,-35.08244 -35.08246,-35.52653 z M 299.91184,629.21222 c 23.09225,0 46.62856,0.88816 69.72081,-0.44409 6.21714,-0.44408 11.99022,-7.1053 17.76326,-10.65795 -5.77304,-3.55266 -11.54612,-10.65796 -17.76326,-10.65796 -46.18449,-0.88817 -92.81305,-0.88817 -139.44163,0 -6.21715,0 -11.9902,6.66122 -17.76327,10.65796 5.77307,3.55265 11.54612,10.21387 17.76327,10.65795 23.09225,1.33225 46.18449,0.44409 69.72082,0.44409 z m 546.6645,-77.71428 v 76.38204 c 0,2.2204 1.77631,6.66123 3.55264,7.1053 13.32245,2.22041 26.64489,4.8849 39.96736,4.44081 1.33223,0 2.66448,-16.43101 3.55264,-25.31265 0.44408,-3.10857 -0.44408,-6.66122 -0.44408,-10.21388 -2.22041,-40.41143 -2.22041,-40.41143 -46.62856,-52.40162 z M 298.5796,666.95916 h 67.94449 c 8.43754,0 19.09551,0.88816 18.20734,-11.10204 -0.44408,-3.99674 -11.10205,-9.7698 -17.31918,-10.21388 -45.74041,-0.88816 -91.48082,-0.88816 -137.22123,0 -5.77306,0 -11.54612,7.10531 -17.31918,10.65797 6.21714,3.55264 11.9902,9.76978 18.20734,9.76978 22.20409,1.77633 44.85225,0.88817 67.50042,0.88817 z m 606.17142,-94.14531 c -1.77633,2.66449 -3.10858,3.99674 -3.10858,5.32898 0.44409,12.87838 0.88818,25.75673 1.77634,39.07919 1.33224,29.30938 1.33224,29.30938 31.08569,29.75347 2.22039,0 3.99679,-0.88817 7.99349,-1.33225 -0.88815,-12.43428 -1.77631,-23.98041 -3.10854,-35.52653 -3.55272,-29.75347 -3.55272,-29.75347 -34.6384,-37.30286 z M 636.96979,726.02202 c -6.21714,-13.76653 -15.54285,-18.65143 -29.75345,-17.76328 -16.43103,1.33225 -32.41797,0.44409 -48.84899,0.44409 -17.31919,0 -17.31919,0 -25.75673,17.31919 z m 155.42858,-0.88817 h 73.71754 c -15.09878,-23.98041 -57.7306,-23.53633 -73.71754,0 z m -106.57959,0.44409 h 66.16816 c -16.43103,-23.98042 -47.07265,-23.98042 -66.16816,0 z"
       p-id="12324"
       fill="#1296db"
       id="path2"
       style="fill:url(#linearGradient23906);fill-opacity:1;stroke:none;stroke-width:0.867347;stroke-opacity:1" />
    <g
       id="g944"
       transform="matrix(0.25020908,0,0,0.25020908,693.66361,194.55038)">
      <path
         d="M 1012.8051,669.44 829.57312,486.208 a 36.611189,36.611189 0 0 0 -51.712,51.84 l 157.312,157.312 -156.8,156.8 a 36.611189,36.611189 0 0 0 51.712,51.84 L 1012.8051,721.216 a 36.608,36.608 0 0 0 0,-51.776 M 513.34912,219.52 v 328.768 a 36.576,36.576 0 1 0 73.152,0 V 219.52 a 36.576,36.576 0 1 0 -73.152,0"
         fill="#5584ff"
         p-id="13693"
         id="path932" />
      <path
         d="m 550.21312,804.48 a 36.48,36.48 0 0 0 -36.608,36.544 V 987.2 a 36.576,36.576 0 1 0 73.152,0 V 841.024 a 36.48,36.48 0 0 0 -36.544,-36.544 m -219.648,0 a 36.48,36.48 0 0 0 -36.608,36.544 V 987.2 a 36.576,36.576 0 1 0 73.152,0 V 841.024 a 36.608,36.608 0 0 0 -36.544,-36.544 m 61.312,-559.36 156.8,-156.8 157.44,157.44 a 36.588596,36.588596 0 1 0 51.648,-51.84 L 574.66112,10.752 a 36.48,36.48 0 0 0 -51.648,0 l -182.784,182.72 a 36.608,36.608 0 0 0 51.648,51.648 m 452.288,449.856 a 36.48,36.48 0 0 0 -36.608,-36.544 c -5.824,0 -581.248,-0.128 -604.224,-0.256 A 137.088,137.088 0 0 1 73.28512,520.96 c 0,-75.776 61.568,-137.344 137.344,-137.344 a 137.472,137.472 0 0 1 131.008,178.944 36.608,36.608 0 0 0 69.696,22.208 210.688,210.688 0 0 0 -200.704,-274.304 210.816,210.816 0 0 0 -152.192,356.096 209.664,209.664 0 0 0 141.952,64.832 c 4.288,0.192 600.96,0.192 607.04,0.192 a 36.8,36.8 0 0 0 36.736,-36.672"
         fill="#5584ff"
         p-id="13694"
         id="path934" />
    </g>
  </g>
</svg>
